<?xml version="1.0" encoding="UTF-8" standalone="no"?>
<svg
   xmlns:dc="http://purl.org/dc/elements/1.1/"
   xmlns:cc="http://creativecommons.org/ns#"
   xmlns:rdf="http://www.w3.org/1999/02/22-rdf-syntax-ns#"
   xmlns:svg="http://www.w3.org/2000/svg"
   xmlns="http://www.w3.org/2000/svg"
   xmlns:xlink="http://www.w3.org/1999/xlink"
   xmlns:sodipodi="http://sodipodi.sourceforge.net/DTD/sodipodi-0.dtd"
   xmlns:inkscape="http://www.inkscape.org/namespaces/inkscape"
   id="Layer_1"
   fill="#ffffff"
   viewBox="0 0 235 85"
   version="1.1"
   sodipodi:docname="pl-logo.svg"
   inkscape:version="0.92.4 (5da689c313, 2019-01-14)">
  <metadata
     id="metadata29">
    <rdf:RDF>
      <cc:Work
         rdf:about="">
        <dc:format>image/svg+xml</dc:format>
        <dc:type
           rdf:resource="http://purl.org/dc/dcmitype/StillImage" />
      </cc:Work>
    </rdf:RDF>
  </metadata>
  <sodipodi:namedview
     pagecolor="#ffffff"
     bordercolor="#666666"
     borderopacity="1"
     objecttolerance="10"
     gridtolerance="10"
     guidetolerance="10"
     inkscape:pageopacity="0"
     inkscape:pageshadow="2"
     inkscape:window-width="976"
     inkscape:window-height="709"
     id="namedview27"
     showgrid="false"
     inkscape:zoom="1.7090921"
     inkscape:cx="132.71852"
     inkscape:cy="11.726887"
     inkscape:window-x="269"
     inkscape:window-y="158"
     inkscape:window-maximized="0"
     inkscape:current-layer="Layer_1" />
  <defs
     id="defs3">
    <path
       id="SVGID_1_"
       d="M211.493 40.327h3.152c0-.898-.459-3.57-4.968-3.57-2.755 0-4.947 1.232-4.947 3.611 0 2.693 2.171 3.256 4.655 3.59l.626.083c.898.125 1.733.313 1.733 1.023 0 .835-.898 1.169-1.921 1.169-1.106 0-2.087-.334-2.087-1.44H204.5c0 .605.271 3.799 5.135 3.799 4.321 0 5.365-2.108 5.365-3.883 0-4.655-7.056-2.797-7.056-4.572 0-.793.877-1.044 1.691-1.044 1.107.002 1.858.441 1.858 1.234zm-13.757-.96c1.399 0 2.442.939 2.442 3.319 0 2.359-1.044 3.298-2.442 3.298-1.566 0-2.421-.731-2.421-3.298 0-2.589.856-3.319 2.421-3.319zm-2.442 9.08V47.32c.585.731 1.607 1.273 2.881 1.273 3.131 0 5.281-2.004 5.281-5.908 0-3.924-2.192-5.928-5.094-5.928-1.273 0-2.484.543-3.069 1.273V33h-3.215v15.447h3.216zm-15.593-7.765h3.11c0-.459.125-1.419 2.025-1.419 1.545 0 1.921.543 1.921 1.336v.397l-3.799.543c-1.065.146-3.632.793-3.632 3.423 0 2.317 1.774 3.632 4.154 3.632 1.983 0 2.86-.668 3.361-1.19v1.044h3.403s-.251-.877-.251-1.712v-6.221c0-1.67-.919-3.757-5.156-3.757-4.385-.001-5.095 2.233-5.136 3.924zm7.055 3.34c0 .981-.668 2.234-2.568 2.234-1.232 0-1.566-.772-1.566-1.294 0-.731.564-1.19 1.336-1.336.793-.167 2.797-.418 2.797-.418v.814zm-8.705 4.425v-2.881h-7.056V33.835h-3.298v14.612h10.354zm-17.242 0V33h-3.215v15.447h3.215zm-10.5-9.08c1.399 0 2.442.939 2.442 3.319 0 2.359-1.044 3.298-2.442 3.298-1.357 0-2.421-.939-2.421-3.298-.001-2.38 1.064-3.319 2.421-3.319zm0 9.227c3.34 0 5.72-2.004 5.72-5.908 0-3.924-2.38-5.928-5.72-5.928-3.319 0-5.699 2.004-5.699 5.928 0 3.904 2.38 5.908 5.699 5.908zm-9.853-4.509c-.209 1.378-1.148 1.9-2.171 1.9-1.315 0-2.359-.939-2.359-3.298 0-2.38 1.023-3.319 2.401-3.319 1.085 0 1.92.543 2.087 1.962h3.236c-.271-3.048-2.442-4.572-5.344-4.572-3.319 0-5.699 2.067-5.699 5.97 0 3.924 2.442 5.866 5.761 5.866 2.964 0 4.968-1.524 5.302-4.509h-3.214zm-14.613-4.718c1.399 0 2.442.939 2.442 3.319 0 2.359-1.044 3.298-2.442 3.298-1.357 0-2.422-.939-2.422-3.298.001-2.38 1.065-3.319 2.422-3.319zm0 9.227c3.34 0 5.72-2.004 5.72-5.908 0-3.924-2.38-5.928-5.72-5.928-3.319 0-5.699 2.004-5.699 5.928 0 3.904 2.38 5.908 5.699 5.908zm-6.68-.188v-2.672s-.731.063-1.399.063c-.689 0-.898-.188-.898-.898v-5.407h2.442v-2.588h-2.442v-3.069h-3.236v3.069h-1.67v2.588h1.67v5.574c0 2.15.313 3.465 3.006 3.465 1.463 0 2.527-.125 2.527-.125zm-13.652-9.039c1.399 0 2.442.939 2.442 3.319 0 2.359-1.044 3.298-2.442 3.298-1.357 0-2.422-.939-2.422-3.298.001-2.38 1.065-3.319 2.422-3.319zm0 9.227c3.34 0 5.72-2.004 5.72-5.908 0-3.924-2.38-5.928-5.72-5.928-3.319 0-5.699 2.004-5.699 5.928 0 3.904 2.38 5.908 5.699 5.908zm-6.534-8.476v-3.215h-1.002c-1.148 0-2.254.501-2.818 1.461v-1.461h-3.11v11.544h3.215V42.31c0-1.607.939-2.213 2.526-2.213.438 0 1.189.021 1.189.021zm-12.045-1.482c0 1.253-.814 2.087-1.92 2.087h-2.735V36.59h2.735c1.106 0 1.92.71 1.92 2.046zm3.445-.209c0-2.985-2.254-4.592-4.926-4.592H79v14.612h3.298v-4.968h2.797c3.424 0 5.282-2.296 5.282-5.052z" />
  </defs>
  <clipPath
     id="SVGID_2_">
    <use
       xlink:href="#SVGID_1_"
       overflow="visible"
       id="use5" />
  </clipPath>
  <path
     style="fill:#ffffff;stroke-width:0.21968196"
     d="m 37.677779,79.615845 c -0.84577,-0.16397 -2.08148,-0.54231 -2.74602,-0.84076 -1.1766,-0.52843 -3.51518,-2.21548 -3.51464,-2.53547 1.9e-4,-0.11706 2.13695,-2.85789 2.74705,-3.52365 0.0347,-0.0378 0.59226,0.33258 1.23911,0.82314 1.49491,1.13371 2.99272,1.6476 4.80085,1.64715 1.74704,-4.4e-4 2.86773,-0.36518 3.896,-1.26802 0.92818,-0.81495 1.37636,-1.78461 1.37636,-2.97783 v -0.86987 l -1.26317,0.6476 c -5.08191,2.60534 -11.12175,-0.011 -12.97885,-5.62227 -1.85644,-5.60927 0.41629,-11.86745 5.1576,-14.20192 1.39707,-0.68788 1.64181,-0.73645 3.71054,-0.73645 2.09753,0 2.29846,0.0415 3.79435,0.78366 l 1.57953,0.78367 v -0.6189 -0.61891 h 2.53769 2.53769 l -0.0742,10.92918 c -0.0832,12.24973 -0.0577,12.03338 -1.70846,14.50544 -1.00693,1.50788 -2.57483,2.68676 -4.44771,3.34414 -1.65164,0.57974 -4.6454,0.73748 -6.64372,0.35007 z m 4.89668,-13.07193 c 1.74297,-0.89654 2.87752,-2.81902 3.06862,-5.19973 0.40672,-5.06686 -4.54834,-8.4428 -8.0246,-5.46726 -1.34866,1.15441 -1.91556,2.65348 -1.90783,5.04498 0.007,2.12045 0.47286,3.59505 1.48358,4.69449 1.19275,1.29745 3.79043,1.74528 5.38023,0.92752 z m 17.181362,4.96464 c -1.69541,-0.38777 -3.477,-1.42317 -4.23015,-2.45841 -1.08696,-1.49408 -1.33344,-2.27431 -1.35329,-4.2838 -0.016,-1.62076 0.0625,-2.03209 0.59448,-3.11544 1.46216,-2.97748 5.08376,-4.54628 10.54012,-4.56577 l 2.14608,-0.008 -0.14031,-0.60413 c -0.0772,-0.33227 -0.37771,-0.85126 -0.66787,-1.15333 -0.47644,-0.49599 -0.72817,-0.55654 -2.59782,-0.62492 -2.35198,-0.086 -3.89138,0.18128 -5.39583,0.93692 l -1.04037,0.52255 -0.90465,-1.90365 c -0.49757,-1.047 -0.90466,-1.97478 -0.90466,-2.06172 0,-0.087 0.57495,-0.44832 1.27768,-0.80306 1.5945,-0.8049 4.11756,-1.33848 6.32901,-1.33848 4.91997,0 7.92325,1.76071 8.6308,5.05992 0.14521,0.67709 0.23865,4.03303 0.23865,8.57117 v 7.45837 h -2.52634 c -2.17394,0 -2.52634,-0.0492 -2.52634,-0.35302 0,-0.25015 -0.11204,-0.30683 -0.38444,-0.19452 -2.57009,1.0597 -5.05835,1.38246 -7.08475,0.91898 z m 5.93142,-5.27311 1.42793,-0.70022 0.0632,-2.03205 0.0632,-2.03206 -1.38126,0.002 c -3.21265,0.004 -5.8236,0.7952 -6.41834,1.94531 -1.56105,3.01874 2.29102,4.75646 6.24534,2.81736 z m 51.844939,5.32264 c -4.03102,-0.70887 -7.31605,-4.04674 -8.13673,-8.2676 -0.35831,-1.84289 -0.17252,-4.91008 0.39204,-6.47197 1.40662,-3.89148 4.74035,-6.42089 8.8431,-6.70956 5.96055,-0.41937 10.19184,3.50923 10.68464,9.92032 l 0.14459,1.8812 h -7.63889 -7.6389 l 0.13532,0.67659 c 0.33766,1.68829 1.57241,3.26508 3.10499,3.96509 1.22267,0.55846 3.68632,0.54663 5.20921,-0.025 0.63886,-0.23981 1.70369,-0.88165 2.36628,-1.42632 l 1.20472,-0.9903 1.59436,1.58372 1.59436,1.58373 -0.82194,0.8593 c -1.18083,1.2345 -3.21193,2.5007 -4.79635,2.99008 -1.66887,0.51546 -4.60615,0.71818 -6.2408,0.43072 z m 6.1511,-13.94232 c 0,-0.4006 -0.76341,-1.47259 -1.37279,-1.92768 -1.55279,-1.15965 -3.80038,-1.31526 -5.61628,-0.38886 -0.87676,0.44729 -2.0179,1.68203 -2.0179,2.18343 0,0.18378 1.24334,0.25386 4.50349,0.25386 2.47691,0 4.50348,-0.0543 4.50348,-0.12075 z m 11.86282,13.47233 c -1.33573,-0.46788 -2.8701,-1.28087 -3.81227,-2.01993 -0.38686,-0.30347 -0.34296,-0.41312 0.87873,-2.1952 0.70726,-1.03168 1.36667,-1.8783 1.46535,-1.88136 0.0987,-0.003 0.51298,0.24884 0.92067,0.5598 1.7102,1.30444 4.668,1.83247 5.82593,1.04005 0.72319,-0.49491 0.86533,-0.72728 0.86932,-1.42114 0.004,-0.73478 -0.919,-1.54314 -2.34954,-2.05719 -1.88396,-0.67698 -4.26778,-1.84872 -5.09664,-2.50518 -1.29457,-1.02532 -2.03752,-2.6113 -2.04611,-4.36781 -0.009,-1.73794 0.36119,-2.73138 1.47539,-3.96466 2.29091,-2.53577 7.04998,-2.95198 10.76458,-0.94144 0.82393,0.44596 1.59085,0.95794 1.70427,1.13774 0.14957,0.23711 -0.0862,0.82264 -0.85801,2.13139 -0.58533,0.99245 -1.14049,1.80689 -1.2337,1.80986 -0.0932,0.003 -0.53807,-0.2379 -0.98857,-0.53526 -2.51854,-1.66241 -5.98162,-1.60343 -5.98162,0.10188 0,0.80747 0.42543,1.10096 3.21906,2.22073 3.51008,1.40693 4.88614,2.40361 5.83983,4.22977 0.68853,1.31841 0.68811,4.05564 -8.7e-4,5.35099 -0.66841,1.25677 -1.8109,2.35706 -3.18893,3.07113 -1.00379,0.52015 -1.44582,0.60265 -3.56249,0.66492 -2.06763,0.0608 -2.62265,-0.001 -3.84443,-0.42909 z M 76.891021,60.812065 v -10.32505 h 2.4165 c 2.27004,0 2.4165,0.0266 2.4165,0.43936 0,0.24165 0.0375,0.43937 0.0833,0.43937 0.0458,0 0.66367,-0.27186 1.37302,-0.60413 1.14237,-0.53511 1.54069,-0.60332 3.48653,-0.59709 1.94494,0.006 2.32573,0.0742 3.32116,0.59313 0.61838,0.32236 1.39834,0.87642 1.73324,1.23125 l 0.60892,0.64514 0.9152,-0.69859 c 1.79969,-1.37374 3.06173,-1.77909 5.50399,-1.76784 3.348699,0.0154 5.026179,0.9639 6.308189,3.56676 l 0.72164,1.46514 0.0675,7.9688 0.0675,7.9688 h -2.42903 -2.42904 v -6.4698 c 0,-3.70403 -0.099,-6.93126 -0.2315,-7.54925 -0.29399,-1.37084 -1.144799,-2.2281 -2.375119,-2.39312 -1.27334,-0.17079 -3.13921,0.76361 -3.94012,1.97315 l -0.59292,0.89543 -0.0666,6.7718 -0.0666,6.77179 h -2.39365 -2.39366 l -0.066,-7.19458 c -0.0593,-6.46041 -0.10677,-7.26921 -0.46508,-7.92586 -0.42828,-0.78486 -1.48788,-1.3557 -2.51648,-1.3557 -0.86453,0 -2.73105,0.97241 -3.26516,1.70105 -0.88404,1.20605 -0.95899,1.86545 -0.95899,8.4371 v 6.33799 h -2.4165 -2.4165 z m -49.684492,-20.3352 c -7.03735,-1.27339 -12.5112,-6.50887 -14.291883,-13.66953 -0.65889,-2.6496 -0.64636,-7.068618 0.0272,-9.602138 1.708493,-6.42595 6.656023,-11.4368699 12.938263,-13.1040199 2.40455,-0.63811 6.71525,-0.63101 9.16145,0.0151 8.22601,2.17272 13.49633,9.1904599 13.50755,17.9861079 0.0151,11.83118 -9.9745,20.43152 -21.34262,18.37448 z m 7.22329,-5.47177 c 2.03015,-0.64468 3.38764,-1.51899 5.05589,-3.25631 2.46788,-2.57004 3.65506,-5.72047 3.65924,-9.71058 0.003,-2.583958 -0.4568,-4.619238 -1.5115,-6.694758 -1.29838,-2.55508 -3.81367,-4.78038 -6.61878,-5.8557099 -1.83736,-0.70434 -5.33264,-0.95818 -7.30047,-0.53019 -4.23162,0.92037 -7.71224,4.1219699 -9.20203,8.4643799 -0.53729,1.56607 -0.60407,2.07569 -0.60487,4.616278 -10e-4,3.32253 0.4182,5.02318 1.80167,7.30837 3.19902,5.28412 8.94486,7.49275 14.72085,5.65852 z M 53.604731,22.148045 V 4.1341271 h 5.72099 c 6.44941,0 8.09756,0.21792 10.51312,1.39009 6.40485,3.10798 7.6571,12.2659999 2.35539,17.2254879 -2.59681,2.42919 -4.57414,3.08783 -9.85715,3.28338 l -3.67967,0.13621 v 6.99633 6.99634 h -2.52634 -2.52634 z m 13.13427,-1.743328 c 1.36653,-0.60552 2.71381,-2.03294 3.08352,-3.26693 0.32086,-1.07092 0.33205,-3.17327 0.0228,-4.28686 -0.32012,-1.1528 -1.52768,-2.41958 -2.84789,-2.9875099 -1.33897,-0.57601 -4.1029,-0.93953 -6.47458,-0.85157 l -1.75563,0.0651 -0.0585,6.0094299 -0.0585,6.009428 3.46356,-0.0882 c 3.03981,-0.0774 3.60568,-0.15117 4.62517,-0.60291 z"
     id="path3800"
     inkscape:connector-curvature="0" />
</svg>
